<svg xmlns="http://www.w3.org/2000/svg" viewBox="0 0 592.803 115.094" height="122.767" width="632.324"><path d="M56.913 17.717l.002.656-39.198 39.183 39.24 39.166v.42l.21-.21.138.136 39.497-39.512-39.543-39.53-.018.019-.328-.328zm31.648.235l.025 18.565.195.194v.025l20.947 20.946-21.142 21.141.019 18.554.194-.192v.117l39.498-39.514-.06-.059.06-.058L88.56 17.95zM57.215 36.573l20.861 20.862-20.978 20.98-20.913-20.863 21.03-20.979zM169.724 36.215c-2.01.042-4.016.382-5.9.992-6.533 2.16-10.904 8.55-11.965 15.167-1.125 6.718-.36 14.268 4.145 19.67 3.216 4.077 8.394 6.347 13.557 6.226 4.156.043 8.362-1.257 11.514-4.024 4.828-4.075 6.965-10.526 6.974-16.701.187-6.144-1.572-12.688-6.22-16.958-3.233-3.113-7.682-4.465-12.105-4.372zm141.51.007c-5.896 0-10.69 2.024-14.385 6.068-3.697 4.045-5.545 9.32-5.545 15.82 0 6.106 1.643 10.993 4.93 14.66 3.285 3.667 7.798 5.5 13.538 5.5 4.4 0 7.965-.72 10.694-2.155V67.75c-2.73 1.74-5.74 2.61-9.026 2.61-3.442 0-6.18-1.167-8.216-3.502-2.033-2.333-3.05-5.468-3.05-9.399 0-4.1 1.077-7.351 3.234-9.752 2.156-2.4 4.99-3.6 8.505-3.6 3.199 0 6.049.814 8.553 2.44v-8.82c-2.505-1.002-5.58-1.504-9.232-1.504zm64.645 0c-4.421-.05-9.085.844-12.266 4.085-3.276 3.374-3.764 8.793-1.956 13.006 1.736 3.826 5.633 5.954 9.331 7.515 2.389 1.178 5.285 2.325 6.293 5.004.676 1.96-.647 4.083-2.568 4.658-4.818 1.576-10.282-.192-13.916-3.561v9.073c.258.144.521.278.789.404 4.537 1.987 9.71 2.237 14.553 1.452 3.991-.596 7.945-2.99 9.382-6.914 1.104-3.284 1.15-7.09-.377-10.254-2.036-4.046-6.413-5.957-10.309-7.76-2.04-1.075-4.628-2.21-5.257-4.658-.526-2.154 1.333-4.04 3.32-4.471 4.013-.983 8.431.075 11.764 2.459v-8.476c-2.188-.913-4.55-1.342-6.908-1.487a33.58 33.58 0 00-1.875-.075zm-182.633.681V77.56h8.426V63.554h4.016c4.522 0 8.134-1.262 10.838-3.785 2.705-2.524 4.056-5.826 4.056-9.91 0-8.637-4.712-12.956-14.136-12.956h-13.2zm31.8 0V77.56h22.43V70.13H233.47v-9.3h12.234v-7.426H233.47V44.36h13.146v-7.458h-21.57zm27.418 0v40.659h7.954V55.219c0-2.948-.068-5.14-.207-6.577h.103c.348.755.974 1.88 1.878 3.375l15.416 25.543h8.503V36.903h-7.957v22.485c0 2.78.07 4.642.21 5.585h-.104a59.965 59.965 0 00-1.877-3.318l-14.842-24.752h-9.077zm83.108 0L321.954 77.56h9.13l2.635-9.044h13.302l2.663 9.044h9.179L345.56 36.903h-9.988zm52.407 0v7.458h10.616V77.56h8.45V44.36h10.672v-7.458h-29.738zm-186.307 7.031h3.313c4.487 0 6.729 2.09 6.729 6.268 0 4.27-2.242 6.409-6.73 6.409h-3.312V43.934zm-32.376.172a7.35 7.35 0 01.63 0 9.15 9.15 0 012.04.218c3.913.837 6.183 4.772 6.81 8.46.719 4.493.721 9.478-1.691 13.495-1.671 2.892-5.111 4.477-8.4 4.024-3.992-.337-6.847-3.93-7.757-7.606-1.053-4.445-.985-9.38 1.07-13.539 1.34-2.812 4.16-4.918 7.298-5.052zm170.945.057h.209c.12 1.418.33 2.636.626 3.657l4.016 13.665h-9.571l4.066-13.779c.348-1.171.567-2.352.654-3.543z" fill="#fff"/><g stroke-width=".937" fill="#fff"><path d="M439.162 77.91c-3.55.076-7.318-1.316-9.354-4.35-1.008-.84-.938-2.94.779-2.505 1.2.793 1.605 2.517 3.027 3.17 2.324 1.482 5.288 1.713 7.94 1.17 2.256-.475 4.198-2.353 4.456-4.69.382-2.06-.28-4.338-1.98-5.638-1.842-1.58-4.341-1.825-6.63-2.247-2.98-.644-6.09-2.39-7.093-5.445-.948-2.86.11-6.306 2.71-7.925 2.832-1.788 6.557-2.062 9.661-.839 1.889.827 3.736 2.114 4.66 4.006.383 1.241-1.536 1.842-2.1.769-1.428-2.273-4.166-3.436-6.797-3.257-2.333.013-5.015.965-5.886 3.336-.716 1.894-.294 4.261 1.395 5.508 2.272 1.855 5.343 1.833 8.029 2.649 2.642.737 5.238 2.512 6.012 5.27.983 3.356.01 7.467-3.04 9.444-1.7 1.132-3.767 1.584-5.789 1.575zM472.875 48.248c1.46-.047 1.201 2.372-.224 2.025h-9.264v26.138c.074 1.616-2.626 1.358-2.25-.225V50.273c-3.234-.01-6.47.022-9.703-.016-1.368-.204-.792-2.396.515-2.009h20.926zM489.465 78.136c-3.735.07-7.686-1.484-9.735-4.733-1.324-1.968-1.607-4.388-1.515-6.703.012-5.858-.025-11.718.018-17.575.237-1.48 2.659-.905 2.231.547.012 6.289-.023 12.578.018 18.865.1 3.336 2.754 6.17 5.921 6.953 3.708.993 8.213.204 10.632-2.992 1.302-1.611 1.55-3.723 1.467-5.723.012-5.883-.025-11.768.019-17.65.237-1.48 2.658-.905 2.231.547-.008 6.284.017 12.568-.013 18.85-.083 3.646-2.458 7.043-5.783 8.493-1.713.793-3.612 1.124-5.491 1.12zM509.369 77.536c-1.104.065-1.194-1.127-1.125-1.939V49.373c-.077-1.105 1.129-1.193 1.938-1.125 2.666.039 5.34-.099 8 .117 4.813.477 9.31 3.565 11.264 8.025 1.863 4.21 1.8 9.274-.205 13.424-2.135 4.495-6.897 7.42-11.82 7.676-2.682.092-5.368.025-8.052.046zm6.75-2.025c3.954.09 7.966-1.771 10.166-5.111 3.464-5.031 2.934-12.554-1.53-16.822-2.47-2.395-5.977-3.474-9.375-3.305h-4.886v25.238h5.625zM537.933 77.536c-.934.073-1.225-.906-1.125-1.654V49.373c-.093-1.548 2.469-1.395 2.25.118-.004 9.013.007 18.026-.005 27.039-.035.566-.547 1.04-1.12 1.006zM560.087 77.91c-5.017.108-10.025-2.446-12.702-6.722-3.751-5.856-2.98-14.34 2.128-19.17 5.12-5.04 13.901-5.536 19.624-1.233 4.385 3.161 6.57 8.852 5.826 14.158-.603 5.618-4.733 10.67-10.166 12.28-1.522.473-3.118.689-4.71.688zm0-2.25c4.532.101 9.055-2.396 11.166-6.445 2.888-5.162 1.784-12.306-2.818-16.12-4.74-4.066-12.434-3.948-17.045.267-5.248 4.589-5.468 13.575-.587 18.506 2.385 2.507 5.845 3.835 9.284 3.793z" style="-inkscape-font-specification:'Comfortaa Light'"/></g></svg>