<svg xmlns="http://www.w3.org/2000/svg" viewBox="0 0 315.938 115.094" height="122.767" width="337"><path d="M56.913 17.717l.002.656-39.198 39.183 39.24 39.166v.42l.21-.21.138.136 39.497-39.512-39.543-39.53-.018.019zm31.648.235l.025 18.565.195.194v.025l20.947 20.946-21.142 21.141.019 18.554.194-.192v.117l39.497-39.514-.058-.059.058-.058zM57.215 36.573l20.861 20.862-20.978 20.98-20.913-20.863z" fill="#fff"/><g style="line-height:125%;-inkscape-font-specification:'Comfortaa Light'" aria-label="STUDIO" font-weight="300" font-size="37.5" font-family="Comfortaa" letter-spacing="0" word-spacing="0" stroke-width=".937" fill="#fff"><path d="M161.394 77.86c-3.55.076-7.318-1.316-9.354-4.35-1.008-.84-.938-2.94.779-2.505 1.2.793 1.605 2.516 3.027 3.17 2.325 1.482 5.288 1.713 7.94 1.17 2.256-.475 4.198-2.354 4.456-4.69.382-2.06-.28-4.338-1.98-5.638-1.842-1.58-4.341-1.825-6.629-2.247-2.98-.644-6.09-2.39-7.094-5.446-.947-2.858.11-6.306 2.71-7.924 2.832-1.789 6.557-2.062 9.661-.839 1.889.826 3.736 2.113 4.66 4.006.383 1.24-1.536 1.841-2.1.768-1.428-2.272-4.166-3.435-6.797-3.257-2.333.014-5.014.966-5.886 3.337-.716 1.894-.293 4.26 1.395 5.508 2.272 1.855 5.343 1.833 8.03 2.649 2.641.736 5.237 2.511 6.011 5.27.984 3.356.01 7.467-3.04 9.443-1.7 1.133-3.766 1.585-5.788 1.575zM195.107 48.198c1.46-.047 1.201 2.372-.224 2.025h-9.263V76.36c.073 1.617-2.627 1.359-2.25-.224V50.223c-3.235-.011-6.47.021-9.704-.017-1.368-.204-.792-2.395.515-2.008h20.926zM211.697 78.085c-3.735.071-7.686-1.483-9.735-4.733-1.324-1.967-1.607-4.387-1.515-6.702.012-5.858-.025-11.718.018-17.576.237-1.479 2.659-.905 2.232.548.011 6.288-.023 12.577.017 18.865.1 3.336 2.754 6.17 5.921 6.953 3.708.993 8.214.204 10.632-2.992 1.302-1.611 1.55-3.724 1.467-5.723.013-5.883-.025-11.769.019-17.65.237-1.48 2.658-.906 2.231.547-.008 6.284.017 12.568-.013 18.85-.083 3.646-2.458 7.042-5.783 8.493-1.713.793-3.612 1.123-5.491 1.12zM231.6 77.485c-1.102.066-1.193-1.126-1.124-1.938V49.323c-.076-1.105 1.129-1.193 1.938-1.125 2.666.039 5.34-.099 8 .117 4.813.477 9.31 3.565 11.265 8.024 1.863 4.211 1.8 9.275-.205 13.425-2.136 4.495-6.898 7.42-11.82 7.676-2.683.092-5.37.025-8.053.045zm6.75-2.025c3.955.091 7.967-1.77 10.167-5.11 3.464-5.032 2.934-12.554-1.53-16.822-2.47-2.396-5.977-3.475-9.375-3.305h-4.886V75.46h5.625zM260.165 77.485c-.933.074-1.224-.905-1.125-1.653v-26.51c-.093-1.548 2.47-1.394 2.25.118-.004 9.013.007 18.027-.005 27.04-.035.566-.547 1.04-1.12 1.005zM282.32 77.86c-5.018.108-10.026-2.446-12.703-6.722-3.751-5.856-2.98-14.34 2.128-19.17 5.12-5.04 13.901-5.537 19.624-1.233 4.385 3.16 6.57 8.851 5.826 14.157-.603 5.62-4.733 10.671-10.166 12.28-1.522.474-3.118.69-4.71.688zm0-2.25c4.53.101 9.054-2.396 11.165-6.446 2.888-5.16 1.784-12.305-2.818-16.119-4.74-4.066-12.434-3.948-17.045.266-5.248 4.59-5.468 13.576-.586 18.507 2.384 2.507 5.844 3.835 9.283 3.792z" style="-inkscape-font-specification:'Comfortaa Light'"/></g></svg>