<svg xmlns="http://www.w3.org/2000/svg" width="24" height="24" viewBox="0 0 24 24" fill="currentColor" stroke="none" stroke-linecap="round" stroke-linejoin="round" class="feather feather-circle"><path d="M 12 1 A 11 11 0 0 0 1 12 A 11 11 0 0 0 12 23 A 11 11 0 0 0 23 12 A 11 11 0 0 0 12 1 z M 17 8 A 1 1 0 0 1 17.707031 8.2929688 A 1 1 0 0 1 17.707031 9.7070312 L 10.707031 16.707031 A 1.0001 1.0001 0 0 1 9.2929688 16.707031 L 6.2929688 13.707031 A 1 1 0 0 1 6.2929688 12.292969 A 1 1 0 0 1 7.7070312 12.292969 L 10 14.585938 L 16.292969 8.2929688 A 1 1 0 0 1 17 8 z" /></svg>
