<?xml version="1.0" encoding="UTF-8" standalone="no"?>
<!-- Generator: Adobe Illustrator 15.0.2, SVG Export Plug-In . SVG Version: 6.00 Build 0)  -->

<svg
   xmlns:dc="http://purl.org/dc/elements/1.1/"
   xmlns:cc="http://creativecommons.org/ns#"
   xmlns:rdf="http://www.w3.org/1999/02/22-rdf-syntax-ns#"
   xmlns:svg="http://www.w3.org/2000/svg"
   xmlns="http://www.w3.org/2000/svg"
   xmlns:sodipodi="http://sodipodi.sourceforge.net/DTD/sodipodi-0.dtd"
   xmlns:inkscape="http://www.inkscape.org/namespaces/inkscape"
   version="1.1"
   id="Ebene_1"
   x="0px"
   y="0px"
   width="167.30232mm"
   height="32.482224mm"
   viewBox="0 0 592.80349 115.09449"
   enable-background="new 0 0 717.17 540"
   xml:space="preserve"
   inkscape:version="0.92.4 (unknown)"
   sodipodi:docname="opencast-studio.svg"><metadata
   id="metadata51"><rdf:RDF><cc:Work
       rdf:about=""><dc:format>image/svg+xml</dc:format><dc:type
         rdf:resource="http://purl.org/dc/dcmitype/StillImage" /><dc:title></dc:title></cc:Work></rdf:RDF></metadata><defs
   id="defs49" /><sodipodi:namedview
   pagecolor="#000000"
   bordercolor="#666666"
   borderopacity="1"
   objecttolerance="10"
   gridtolerance="10"
   guidetolerance="10"
   inkscape:pageopacity="0"
   inkscape:pageshadow="2"
   inkscape:window-width="3840"
   inkscape:window-height="2107"
   id="namedview47"
   showgrid="false"
   fit-margin-top="5"
   fit-margin-left="5"
   fit-margin-bottom="5"
   fit-margin-right="5"
   inkscape:zoom="3.4962962"
   inkscape:cx="319.21658"
   inkscape:cy="-24.577213"
   inkscape:window-x="0"
   inkscape:window-y="0"
   inkscape:window-maximized="1"
   inkscape:current-layer="Ebene_1"
   units="mm" /><g
   id="g3"
   style="fill:#ffffff;fill-opacity:1"
   transform="matrix(1.1241114,0,0,1.1241114,-189.53592,-271.99556)"><g
     id="g5"
     style="fill:#ffffff;fill-opacity:1"><path
       style="fill:#ffffff;fill-opacity:1"
       d="m 219.23899,257.72546 0.001,0.58345 -34.86996,34.85638 34.90819,34.84282 v 0.37499 l 0.1875,-0.18749 0.12088,0.12088 35.13763,-35.1512 -35.1771,-35.16352 -0.016,0.016 -0.29234,-0.29234 z m 28.15352,0.20846 0.0222,16.51664 0.17268,0.17269 v 0.0222 l 18.63457,18.63333 -18.80725,18.80725 0.0173,16.50553 0.17146,-0.17146 v 0.10362 l 35.13763,-35.1512 -0.0518,-0.0518 0.0518,-0.0518 -35.34856,-35.33499 z m 72.20199,16.2465 c -1.78847,0.0374 -3.57301,0.34057 -5.24857,0.88319 -5.81212,1.92127 -9.6997,7.60532 -10.64391,13.49208 -1.00035,5.97702 -0.32001,12.69391 3.68695,17.49973 2.86126,3.62624 7.46708,5.64618 12.05997,5.53844 3.69724,0.0383 7.43955,-1.11894 10.24303,-3.58086 4.29493,-3.62438 6.19657,-9.36277 6.20453,-14.85634 0.16567,-5.46563 -1.39919,-11.28717 -5.5335,-15.08577 -2.87648,-2.76943 -6.83387,-3.97285 -10.7685,-3.89047 z m 183.39383,0.007 c -3.93323,-0.0442 -8.08277,0.75109 -10.91281,3.6339 -2.91388,3.00152 -3.34765,7.8227 -1.73925,11.57028 1.54457,3.40377 5.01183,5.29586 8.30149,6.68437 2.12469,1.0487 4.7021,2.06857 5.59888,4.45172 0.60057,1.74353 -0.57646,3.63317 -2.28568,4.14457 -4.28556,1.40174 -9.14636,-0.17066 -12.37946,-3.16764 v 8.07083 c 0.22966,0.12812 0.46414,0.24772 0.70186,0.36018 4.03605,1.76778 8.63829,1.98967 12.94687,1.29148 3.55077,-0.53025 7.06756,-2.66144 8.3459,-6.15149 0.98226,-2.92198 1.02285,-6.30603 -0.33551,-9.12054 -1.81091,-3.59949 -5.70527,-5.29994 -9.17112,-6.90392 -1.81573,-0.95665 -4.11706,-1.96629 -4.67622,-4.14458 -0.4685,-1.9159 1.18536,-3.59331 2.95302,-3.97682 3.56971,-0.87438 7.50092,0.0677 10.46629,2.18824 v -7.54165 c -1.94706,-0.81239 -4.04827,-1.19326 -6.14656,-1.32232 -0.54862,-0.0369 -1.10581,-0.0603 -1.6677,-0.0666 z m -57.50847,0.001 c -5.24443,0 -9.50914,1.79985 -12.79638,5.39782 -3.28851,3.5986 -4.93279,8.28992 -4.93279,14.07306 0,5.43138 1.46288,9.77864 4.38635,13.04062 2.92283,3.26198 6.93659,4.89331 12.04271,4.89331 3.91374,0 7.08632,-0.63986 9.51402,-1.91687 v -7.44173 c -2.4277,1.54731 -5.10542,2.32022 -8.02888,2.32022 -3.06241,0 -5.49909,-1.03805 -7.30976,-3.1146 -1.8094,-2.07592 -2.7137,-4.86378 -2.7137,-8.3607 0,-3.64849 0.95786,-6.53995 2.87652,-8.67524 1.91867,-2.13528 4.44013,-3.20341 7.56633,-3.20341 2.84578,0 5.382,0.72347 7.60949,2.16973 v -7.84509 c -2.22812,-0.89112 -4.96393,-1.33712 -8.21391,-1.33712 z m -225.97196,0.31208 18.55808,18.55808 -18.66293,18.66293 -18.60372,-18.55808 z m 121.01178,0.29357 v 36.16761 h 7.49601 v -12.45964 h 3.57223 c 4.023,0 7.23549,-1.12169 9.64108,-3.36623 2.40622,-2.24518 3.608,-5.18316 3.608,-8.81587 0,-7.68412 -4.1917,-11.52587 -12.57559,-11.52587 z m 28.28797,0 v 36.16761 h 19.95441 v -6.60789 h -12.45963 v -8.27312 h 10.88322 v -6.60789 h -10.88322 v -8.04492 h 11.69486 v -6.63379 z m 24.39133,0 v 36.16884 h 7.07662 v -19.87547 c 0,-2.62284 -0.0619,-4.57288 -0.18503,-5.85051 h 0.0913 c 0.31009,0.67197 0.8668,1.67232 1.6714,3.00112 l 13.71411,22.72363 h 7.56385 v -36.16761 h -7.07785 v 20.00252 c 0,2.47191 0.0618,4.12799 0.18626,4.96733 h -0.0925 c -0.51093,-0.97449 -1.06703,-1.95901 -1.67017,-2.95055 l -13.20343,-22.0193 h -8.07453 z m 73.93259,0 -12.11425,36.16761 h 8.1214 l 2.34489,-8.04492 h 11.83302 l 2.36833,8.04492 h 8.1658 l -11.83301,-36.16761 z m 46.62033,0 v 6.63379 h 9.44495 v 29.53382 h 7.51698 v -29.53382 h 9.49182 10e-4 v -6.63379 h -26.45499 z m -165.73621,6.25511 h 2.94684 c 3.99206,0 5.9862,1.85874 5.9862,5.57544 0,3.7988 -1.99477,5.70003 -5.9862,5.70003 h -2.94684 z m -28.80235,0.15172 c 0.18612,-0.008 0.37292,-0.008 0.56125,0 0.60875,-10e-5 1.2194,0.059 1.81325,0.19489 3.48121,0.74389 5.50196,4.24534 6.06021,7.52562 0.63876,3.99683 0.64114,8.43096 -1.50487,12.00447 -1.48677,2.57327 -4.54648,3.98356 -7.47134,3.58086 -3.55247,-0.29975 -6.09331,-3.49763 -6.9027,-6.76701 -0.93637,-3.95463 -0.87612,-8.34514 0.95103,-12.04394 1.19246,-2.50172 3.70148,-4.37577 6.49317,-4.49489 z m 152.07145,0.0506 h 0.18626 c 0.10736,1.26122 0.29295,2.34458 0.55631,3.25276 l 3.57223,12.15742 h -8.51365 l 3.61786,-12.25734 c 0.30946,-1.04206 0.50331,-2.09309 0.58099,-3.15284 z"
       id="polygon7"
       inkscape:connector-curvature="0" /></g><g
     id="g9"
     style="fill:#ffffff;fill-opacity:1" /><g
     id="g13"
     style="fill:#ffffff;fill-opacity:1" /></g><g
   id="g35"
   style="fill:#000000;fill-opacity:1"
   transform="translate(-166.65349,-231.21359)" /><g
   id="g39"
   style="fill:#000000;fill-opacity:1"
   transform="translate(-166.65349,-231.21359)" /><g
   id="g43"
   style="fill:#000000;fill-opacity:1"
   transform="translate(-166.65349,-231.21359)" /><g
   aria-label="STUDIO"
   style="font-style:normal;font-variant:normal;font-weight:300;font-stretch:normal;font-size:37.5px;line-height:125%;font-family:Comfortaa;-inkscape-font-specification:'Comfortaa Light';letter-spacing:0px;word-spacing:0px;fill:#000000;fill-opacity:1;stroke:none;stroke-width:0.93749994px;stroke-linecap:butt;stroke-linejoin:miter;stroke-opacity:1"
   id="text824"><path
     style="font-style:normal;font-variant:normal;font-weight:300;font-stretch:normal;font-family:Comfortaa;-inkscape-font-specification:'Comfortaa Light';fill:#ffffff;fill-opacity:1;stroke-width:0.93749994px"
     d="m 439.16236,77.910515 c -3.55012,0.07532 -7.31882,-1.316308 -9.35438,-4.351025 -1.00822,-0.83982 -0.93792,-2.938999 0.7786,-2.504444 1.19977,0.792809 1.60568,2.516593 3.02724,3.170215 2.32457,1.481682 5.28778,1.713153 7.93986,1.169129 2.25627,-0.474501 4.19829,-2.352811 4.45646,-4.689881 0.38156,-2.059458 -0.27945,-4.337082 -1.97966,-5.637744 -1.84221,-1.579702 -4.34191,-1.824356 -6.62959,-2.246484 -2.98033,-0.644369 -6.0908,-2.390784 -7.0938,-5.445703 -0.94772,-2.85863 0.11056,-6.306002 2.70981,-7.924659 2.83216,-1.78832 6.55719,-2.061455 9.66108,-0.838623 1.88861,0.826249 3.73584,2.113373 4.65938,4.005469 0.38397,1.241327 -1.53514,1.841886 -2.1,0.76875 -1.42741,-2.27221 -4.16512,-3.435541 -6.79629,-3.256934 -2.33285,0.01373 -5.01461,0.965499 -5.88603,3.336329 -0.71649,1.89396 -0.29361,4.261138 1.39482,5.508105 2.27214,1.855398 5.34339,1.833349 8.0291,2.649023 2.642,0.7366 5.23795,2.511654 6.01194,5.270655 0.98354,3.35539 0.01,7.4664 -3.03948,9.442822 -1.69975,1.132739 -3.76705,1.584525 -5.78906,1.575 z"
     id="path821"
     inkscape:connector-curvature="0" /><path
     style="font-style:normal;font-variant:normal;font-weight:300;font-stretch:normal;font-family:Comfortaa;-inkscape-font-specification:'Comfortaa Light';fill:#ffffff;fill-opacity:1;stroke-width:0.93749994px"
     d="m 472.87486,48.248015 c 1.45983,-0.04705 1.20149,2.371801 -0.22436,2.025 -3.08772,0 -6.17543,0 -9.26314,0 0,8.7125 0,17.425 0,26.1375 0.0739,1.616678 -2.6262,1.358627 -2.25,-0.224365 0,-8.637711 0,-17.275423 0,-25.913135 -3.23417,-0.01081 -6.46999,0.02171 -9.70312,-0.01641 -1.36866,-0.203904 -0.79237,-2.395609 0.51477,-2.008594 6.97529,0 13.95057,0 20.92585,0 z"
     id="path823"
     inkscape:connector-curvature="0" /><path
     style="font-style:normal;font-variant:normal;font-weight:300;font-stretch:normal;font-family:Comfortaa;-inkscape-font-specification:'Comfortaa Light';fill:#ffffff;fill-opacity:1;stroke-width:0.93749994px"
     d="m 489.46451,78.135515 c -3.7343,0.07073 -7.68575,-1.483436 -9.73484,-4.732983 -1.32416,-1.967383 -1.60635,-4.387237 -1.51516,-6.702226 0.0125,-5.858342 -0.025,-11.718564 0.0187,-17.575728 0.23673,-1.479042 2.65833,-0.904974 2.23125,0.547898 0.0115,6.288156 -0.0231,12.577213 0.0176,18.864797 0.0999,3.33593 2.75378,6.169693 5.9209,6.952734 3.70759,0.993232 8.21344,0.204155 10.63183,-2.991797 1.30234,-1.611166 1.54945,-3.723645 1.46719,-5.723039 0.0125,-5.883297 -0.0249,-11.768473 0.0188,-17.650593 0.23673,-1.479042 2.65833,-0.904974 2.23125,0.547898 -0.008,6.283405 0.017,12.567325 -0.0128,18.850405 -0.0833,3.645234 -2.45837,7.041685 -5.78368,8.492029 -1.71269,0.792976 -3.61151,1.123737 -5.49097,1.120605 z"
     id="path825"
     inkscape:connector-curvature="0" /><path
     style="font-style:normal;font-variant:normal;font-weight:300;font-stretch:normal;font-family:Comfortaa;-inkscape-font-specification:'Comfortaa Light';fill:#ffffff;fill-opacity:1;stroke-width:0.93749994px"
     d="m 509.3688,77.535515 c -1.10337,0.0658 -1.19388,-1.126443 -1.125,-1.938017 0,-8.741495 0,-17.482989 0,-26.224483 -0.0763,-1.105159 1.12884,-1.192614 1.93802,-1.125 2.66635,0.03887 5.33995,-0.09856 7.99948,0.117188 4.81397,0.476765 9.31085,3.564559 11.26516,8.02445 1.86303,4.210968 1.79956,9.274814 -0.20508,13.424671 -2.13565,4.495082 -6.89783,7.420228 -11.82033,7.675415 -2.682,0.0926 -5.36851,0.02526 -8.05225,0.04578 z m 6.75,-2.025 c 3.95415,0.09085 7.96638,-1.770617 10.16587,-5.110693 3.46398,-5.031189 2.93458,-12.55397 -1.5293,-16.821827 -2.47015,-2.395492 -5.97779,-3.474351 -9.37568,-3.30498 -1.62863,0 -3.25726,0 -4.88589,0 0,8.4125 0,16.825 0,25.2375 1.875,0 3.75,0 5.625,0 z"
     id="path827"
     inkscape:connector-curvature="0" /><path
     style="font-style:normal;font-variant:normal;font-weight:300;font-stretch:normal;font-family:Comfortaa;-inkscape-font-specification:'Comfortaa Light';fill:#ffffff;fill-opacity:1;stroke-width:0.93749994px"
     d="m 537.93326,77.535515 c -0.93386,0.07338 -1.2249,-0.905128 -1.125,-1.653728 0,-8.836258 0,-17.672515 0,-26.508772 -0.0934,-1.548367 2.4687,-1.394948 2.25,0.117495 -0.004,9.01314 0.007,18.02659 -0.005,27.039536 -0.0357,0.566077 -0.54775,1.039565 -1.11973,1.005469 z"
     id="path829"
     inkscape:connector-curvature="0" /><path
     style="font-style:normal;font-variant:normal;font-weight:300;font-stretch:normal;font-family:Comfortaa;-inkscape-font-specification:'Comfortaa Light';fill:#ffffff;fill-opacity:1;stroke-width:0.93749994px"
     d="m 560.08697,77.910515 c -5.01721,0.107963 -10.02465,-2.446572 -12.70232,-6.722681 -3.75091,-5.855763 -2.98002,-14.339579 2.12871,-19.169604 5.12006,-5.040646 13.90071,-5.536558 19.62371,-1.232813 4.38518,3.160606 6.57022,8.851163 5.82568,14.157129 -0.60318,5.618858 -4.73323,10.671044 -10.1659,12.280518 -1.52171,0.47334 -3.11798,0.68861 -4.70988,0.687451 z m 0,-2.25 c 4.53157,0.100684 9.05481,-2.396357 11.16632,-6.445972 2.8876,-5.161198 1.78399,-12.305595 -2.81854,-16.118994 -4.7407,-4.066312 -12.43424,-3.948424 -17.04511,0.266016 -5.24775,4.589098 -5.46741,13.575886 -0.58623,18.506726 2.38495,2.50719 5.84421,3.834587 9.28356,3.792224 z"
     id="path831"
     inkscape:connector-curvature="0" /></g>
</svg>