<?xml version="1.0" encoding="UTF-8" standalone="no"?>
<!-- Created with Inkscape (http://www.inkscape.org/) -->

<svg
   xmlns:dc="http://purl.org/dc/elements/1.1/"
   xmlns:cc="http://creativecommons.org/ns#"
   xmlns:rdf="http://www.w3.org/1999/02/22-rdf-syntax-ns#"
   xmlns:svg="http://www.w3.org/2000/svg"
   xmlns="http://www.w3.org/2000/svg"
   xmlns:inkscape="http://www.inkscape.org/namespaces/inkscape"
   version="1.1"
   width="163.0125"
   height="68.925003"
   id="svg2"
   xml:space="preserve"><metadata
     id="metadata8"><rdf:RDF><cc:Work
         rdf:about=""><dc:format>image/svg+xml</dc:format><dc:type
           rdf:resource="http://purl.org/dc/dcmitype/StillImage" /></cc:Work></rdf:RDF></metadata><defs
     id="defs6" /><g
     transform="matrix(1.25,0,0,-1.25,0,68.925)"
     id="g10"><g
       transform="scale(0.1,0.1)"
       id="g12"><path
         d="m 0.664062,146.699 1303.390038,0 0,404.746 -1303.390038,0 0,-404.746 z"
         inkscape:connector-curvature="0"
         id="path14"
         style="fill:#632390;fill-opacity:1;fill-rule:nonzero;stroke:none" /><path
         d="m 828.129,304.004 c -11.817,0 -21.934,-6.699 -21.934,-16.582 0,-8.633 4.844,-14.59 27.129,-23.195 9.59,5.48 16.387,12.355 16.387,21.3 0,11.309 -9.59,18.477 -21.582,18.477 z m -3.926,-47.949 c -11.68,-5.801 -18.691,-13.985 -18.691,-24.18 0,-13.34 10.449,-22.09 23.476,-22.09 12.852,0 23.457,8.281 23.457,20.527 0,10.508 -8.379,17.442 -28.242,25.743 m 12.344,6.093 c 17.988,-7.363 26.015,-15.371 26.015,-27.441 0,-16.309 -14.746,-28.867 -33.75,-28.867 -18.515,0 -33.242,11.445 -33.242,25.722 0,10.997 8.555,19.942 25.196,26.067 -16.114,6.598 -23.828,14.266 -23.828,24.922 0,13.804 14.238,25.418 31.367,25.418 17.129,0 30.84,-10.031 30.84,-22.586 0,-10.031 -7.52,-17.738 -22.598,-23.235 m 141.23,29.61 -35.215,-48.301 35.215,0 0,48.301 z m -43.3,-56.153 0,3.633 49.726,67.754 4.629,0 0,-63.535 12.868,0 0,-7.852 -12.868,0 0,-28.183 -11.055,0 0,28.183 -43.3,0 m -187.911,-28.183 0,3.769 c 14.805,0 15.508,2.539 15.508,10.235 l 0.02,0 0,73.015 c -5.274,-4.382 -14.473,-10.195 -20.606,-12.879 l -1.308,2.208 c 9.55,6.113 23.242,17.89 27.187,23.222 l 5.762,0 0,-83.437 c 0.195,-10.078 2.109,-12.012 16.875,-12.364 l 0,-3.769 -43.438,0 z m 186.25,21.797 -2.949,0 c -2.129,-9.473 -4.883,-11.973 -12.656,-12.129 l -37.031,0 c 19.531,17.168 49.57,39.57 49.57,63.293 0,15.738 -11.992,27.586 -28.34,27.586 -16.855,0 -29.629,-12.16 -31.484,-29.922 l 2.48,0 c 3.574,12.637 13.418,21.043 24.473,21.043 11.699,0 20.586,-9.207 20.586,-20.906 0,-27.969 -45.547,-62.383 -49.57,-66.309 l 0,-4.453 61.953,0 0.019,-0.02 0,0.02 0.039,0 1.309,9.668 -0.02,0 1.621,12.129 z m -95.839,197.969 c -2.539,16.277 -7.539,17.41 -14.512,17.41 l -44.082,0 0,-48.047 34.512,0 c 7.109,0 10.468,0.91 11.445,12.355 l 3.75,0 0,-33.086 -3.75,0 c -1.582,14.004 -5.332,13.145 -13.438,13.145 l -32.519,0 0,-42.031 c 0,-9.082 4.179,-10.84 11.465,-10.84 l 29.57,0 c 13.574,0 18.047,2.91 22.793,19.531 l 3.594,0 -3.086,-26.633 -97.598,0 0,3.762 c 15.801,0.379 16.895,2.558 16.895,14.59 l 0.078,86.054 c 0,12.04 -1.114,14.207 -16.895,14.59 l 0,3.75 93.848,-0.039 1.543,-24.511 -3.613,0 z m 86.64,4.011 83.773,0 2.4,-22.234 -2.91,0 c -2.42,14.238 -5.41,16.074 -11.876,16.074 l -22.481,0 0,-80.851 c 0,-8.719 2.93,-11.805 12.774,-11.805 l 3.711,0 0,-3.399 -47.012,0 0,3.399 3.692,0 c 9.843,0 12.773,3.086 12.773,11.805 l 0,80.851 -22.461,0 c -6.465,0 -9.355,-1.769 -11.797,-16.094 l -2.91,0 2.324,22.254 z m -59.238,-17.332 c 0,9.141 8.183,14.668 19.922,14.668 12.265,0 23.652,-7.812 28.633,-19.57 l 2.851,0 -2.344,17.48 c -6.113,2.793 -19.218,6.856 -30.742,6.856 -18.144,0 -31.308,-11.789 -31.308,-25.352 0,-28.586 56.738,-34.953 56.738,-58.457 0,-12.89 -12.617,-18.418 -24.531,-18.418 -13.907,0 -26.66,8.457 -30.45,24.551 l -3.125,0 3.614,-24.316 c 9.199,-2.559 21.718,-5.489 31.562,-5.489 20.801,0 35.938,13.418 35.938,29.434 0,30.058 -56.758,35.422 -56.758,58.613"
         inkscape:connector-curvature="0"
         id="path16"
         style="fill:#fcd205;fill-opacity:1;fill-rule:nonzero;stroke:none" /><path
         d="m 1153.36,384.688 c -4.55,0 -7.53,-0.208 -12.28,0.39 l 0,63.418 c 3.57,0.391 6.17,0.391 9.9,0.391 30.57,0 38.91,-13.438 38.91,-31.895 0,-23.808 -14.49,-32.304 -36.53,-32.304 z m 67.06,-32.844 -15.67,15 c -9.33,9.316 -15.27,13.429 -22.62,19.191 16.29,4.766 26.41,17.266 26.41,32.129 0,20.254 -16.46,35.32 -53.16,35.32 -12.91,0 -16.88,-0.183 -25,-0.605 -8.13,-0.379 -20.24,-1.18 -25,-1.18 l 0,-3.769 4.35,0 c 11.51,0 14.9,-3.567 14.9,-15.879 l 0,-82.824 c 0,-13.289 -4.18,-16.473 -15.88,-16.473 l -3.37,0 0,-3.762 56.13,0 0,3.762 -4.55,0 c -11.13,0 -15.88,2.969 -15.88,14.883 l 0,32.851 c 3.18,-0.215 5.76,-0.39 10.12,-0.39 5.21,0 8.36,0.175 13.06,0.371 15.12,-8.664 26.94,-21.961 33.95,-28.625 18.08,-17.215 22.3,-24.442 57.01,-22.852 l 0,3.762 c -15.25,0.984 -23.09,7.375 -34.8,19.09 z m -67.06,32.844 c -4.55,0 -7.53,-0.208 -12.28,0.39 l 0,63.418 c 3.57,0.391 6.17,0.391 9.9,0.391 30.57,0 38.91,-13.438 38.91,-31.895 0,-23.808 -14.49,-32.304 -36.53,-32.304 z m 67.06,-32.844 -15.67,15 c -9.33,9.316 -15.27,13.429 -22.62,19.191 16.29,4.766 26.41,17.266 26.41,32.129 0,20.254 -16.46,35.32 -53.16,35.32 -12.91,0 -16.88,-0.183 -25,-0.605 -8.13,-0.379 -20.24,-1.18 -25,-1.18 l 0,-3.769 4.35,0 c 11.51,0 14.9,-3.567 14.9,-15.879 l 0,-82.824 c 0,-13.289 -4.18,-16.473 -15.88,-16.473 l -3.37,0 0,-3.762 56.13,0 0,3.762 -4.55,0 c -11.13,0 -15.88,2.969 -15.88,14.883 l 0,32.851 c 3.18,-0.215 5.76,-0.39 10.12,-0.39 5.21,0 8.36,0.175 13.06,0.371 15.12,-8.664 26.94,-21.961 33.95,-28.625 18.08,-17.215 22.3,-24.442 57.01,-22.852 l 0,3.762 c -15.25,0.984 -23.09,7.375 -34.8,19.09 z M 551.605,454.668 c 20.704,0 35.918,-6.953 45.129,-10.898 l 1.532,-24.434 -3.77,0 c -6.492,18.359 -20.195,30.379 -41.719,30.379 -32.949,0 -49.375,-25.477 -49.375,-58.641 0,-35.703 21.563,-59.824 51.563,-59.824 8.984,0 31.457,5.977 44.883,29.863 l 3.73,0 -9.433,-23.164 c -11.758,-5.605 -21.231,-12.129 -44.512,-12.129 -40.059,0 -63.965,26.438 -63.965,62.938 0,38.285 24.687,65.91 65.937,65.91 z m 190.606,-121.914 0,-3.742 -48.816,0 0,3.742 c 14.89,0.371 16.707,2.336 16.863,12.676 l 0,43.523 -72.449,0 0,-41.59 0.027,0 c 0,-12.031 1.113,-14.199 16.887,-14.59 l 0,-3.75 -48.809,0 0,3.75 c 14.793,0 15.496,2.559 15.496,10.254 l 0.02,0 0,94.668 -0.039,0.02 c 0,7.695 -0.703,10.246 -15.496,10.246 l 0,3.758 48.816,0 0,-3.758 c -15.781,-0.383 -16.895,-2.551 -16.895,-14.594 l -0.039,0.012 -0.039,-36.828 72.461,0 0.039,38.515 c -0.136,10.52 -1.894,12.532 -16.875,12.883 l 0,3.75 48.809,0 0,-3.75 c -14.785,0 -15.508,-2.551 -15.508,-10.254 l -0.047,0 0,-94.668 0.078,-0.019 c 0,-7.688 0.703,-10.254 15.516,-10.254 z m -478.133,53.242 22.617,53.563 22.403,-53.563 -45.02,0 z m 179.121,65.703 0,-3.75 c 15.77,-0.39 16.875,-2.558 16.875,-14.609 l 0,-78.516 -82.433,96.875 -29.512,0 0,-3.75 c 6.894,-0.195 10.566,-1.758 15.098,-4.933 l 0,-97.059 c 0,-7.5 -2.872,-12.832 -9.493,-12.832 -5.273,0 -7.714,5.809 -10.586,12.043 l -45.918,106.531 -14.003,0 -42.383,-99.441 c -7.578,-16.496 -8.946,-19.172 -13.028,-19.172 -5.117,0 -6.933,4.559 -7.793,17.812 L 214,437.715 c 0,7.695 2.332,10.246 17.137,10.246 l 0,3.758 -33.27,-0.012 -43.363,-99.648 -43.606,99.64 -34.5699,0 0,-3.75 c 14.8047,0 17.1524,-2.551 17.1524,-10.254 l -5.2578,-83.847 c -0.9961,-17.95 -2.7579,-21.114 -17.1836,-21.114 l 0,-3.742 41.0549,0 0,3.742 c -8.879,0.399 -16.3752,2.559 -15.7971,12.618 l 5.3281,88.789 0.414,0 46.352,-105.149 4.523,0 45.012,105.149 0.398,0 5.715,-88.379 c 0.801,-10.469 -8.293,-13.028 -17.551,-13.028 l 0,-3.742 76.164,0 0,3.742 -0.714,0 c -10.848,0 -15.977,1.961 -15.977,7.293 0,2.766 2.578,8.684 3.945,12.442 l 10.957,25.937 51.407,0 12.929,-30.879 c 0.781,-1.972 2.168,-4.929 2.168,-8.074 0,-5.527 -4.14,-6.719 -15.39,-6.719 l -2.684,0 0,-3.742 80.293,0 0,3.742 c -16.789,0 -17.473,2.95 -17.473,17.157 l 0,84.64 91.711,-106.926 5.125,0 0,110.09 c 0,7.696 0.715,10.254 15.528,10.254 l 0,3.75 -41.278,0 z m 655.611,-24.511 -1.56,24.511 -93.83,0.039 0,-3.75 c 15.78,-0.383 16.88,-2.55 16.88,-14.59 l -0.06,-86.054 c 0,-12.032 -1.11,-14.211 -16.9,-14.59 l 0,-3.762 97.58,0 3.11,26.633 -3.6,0 c -4.76,-16.621 -9.19,-19.531 -22.79,-19.531 l -29.55,0 c -7.32,0 -11.48,1.758 -11.48,10.84 l 0,42.031 32.54,0 c 8.08,0 11.85,0.859 13.41,-13.145 l 3.75,0 0,33.086 -3.75,0 c -0.99,-11.445 -4.35,-12.355 -11.44,-12.355 l -34.51,0 0,48.047 44.06,0 c 6.99,0 11.99,-1.133 14.53,-17.41 l 3.61,0"
         inkscape:connector-curvature="0"
         id="path18"
         style="fill:#ffffff;fill-opacity:1;fill-rule:nonzero;stroke:none" /><path
         d="m 30.1055,93.8945 0,-66.1718 -8.2266,0 0,66.1718 -21.8789,0 0,6.9295 52.0938,0 0,-6.9295 -21.9883,0"
         inkscape:connector-curvature="0"
         id="path20"
         style="fill:#868485;fill-opacity:1;fill-rule:nonzero;stroke:none" /><path
         d="m 96.5,27.7227 0,34.875 c 0,8.4492 -2.2773,13.3203 -10.0742,13.3203 -9.6406,0 -16.4649,-9.5313 -16.4649,-22.3086 l 0,-25.8867 -8.1211,0 0,79.0583 8.1211,0 0,-26.3122 c 0,-3.5743 -0.2148,-8.0196 -0.8632,-10.7227 l 0.2148,-0.1094 c 3.1445,7.9063 9.8555,12.9961 19.168,12.9961 12.3475,0 16.1365,-7.7969 16.1365,-17.332 l 0,-37.5781 -8.117,0"
         inkscape:connector-curvature="0"
         id="path22"
         style="fill:#868485;fill-opacity:1;fill-rule:nonzero;stroke:none" /><path
         d="m 161.477,56.3125 -35.954,0 c -0.543,-16.1328 5.844,-22.8477 17.868,-22.8477 5.632,0 11.586,1.4063 15.593,3.4649 L 159.742,30 c -4.98,-2.0625 -11.047,-3.2539 -17.762,-3.2539 -16.242,0 -24.906,8.7773 -24.906,27.6172 0,16.1406 8.664,28.1601 23.61,28.1601 14.836,0 21.011,-10.289 21.011,-22.2031 0,-0.9765 0,-2.3828 -0.218,-4.0078 z M 140.25,76.3516 c -7.578,0 -13,-5.5235 -14.297,-13.9688 l 27.293,0 c 0.215,8.336 -4.766,13.9688 -12.996,13.9688"
         inkscape:connector-curvature="0"
         id="path24"
         style="fill:#868485;fill-opacity:1;fill-rule:nonzero;stroke:none" /><path
         d="m 223.098,26.7461 c -22.633,0 -26.969,12.6719 -26.969,25.2344 l 0,48.8435 8.34,0 0,-48.0818 c 0,-10.5078 3.465,-19.168 19.277,-19.168 13.426,0 20.031,5.6289 20.031,21.2266 l 0,46.0232 8.125,0 0,-45.3748 c 0,-18.7344 -9.851,-28.7031 -28.804,-28.7031"
         inkscape:connector-curvature="0"
         id="path26"
         style="fill:#868485;fill-opacity:1;fill-rule:nonzero;stroke:none" /><path
         d="m 302.48,27.7227 0,34.875 c 0,8.4492 -2.277,13.3203 -10.074,13.3203 -9.636,0 -16.461,-9.5313 -16.461,-22.3086 l 0,-25.8867 -8.125,0 0,53.8242 8.016,0 c 0,-3.461 -0.324,-8.6602 -0.863,-11.9102 l 0.215,-0.1094 c 3.031,7.7969 9.855,13.1055 19.277,13.1055 12.347,0 16.137,-7.7969 16.137,-17.332 l 0,-37.5781 -8.122,0"
         inkscape:connector-curvature="0"
         id="path28"
         style="fill:#868485;fill-opacity:1;fill-rule:nonzero;stroke:none" /><path
         d="m 330.098,91.3008 c -3.145,0 -5.633,2.375 -5.633,5.5195 0,3.0313 2.488,5.5237 5.633,5.5237 3.031,0 5.629,-2.4924 5.629,-5.5237 0,-3.1445 -2.598,-5.5195 -5.629,-5.5195 z m -4.118,-63.5781 0,53.8242 8.122,0 0,-53.8242 -8.122,0"
         inkscape:connector-curvature="0"
         id="path30"
         style="fill:#868485;fill-opacity:1;fill-rule:nonzero;stroke:none" /><path
         d="m 371.68,27.7227 -8.45,0 -20.355,53.8242 9.203,0 12.567,-35.086 c 1.078,-3.3554 2.054,-6.3945 3.031,-9.5312 l 0.105,0 c 0.867,2.9219 1.844,6.1758 2.926,9.0937 l 12.887,35.5235 8.883,0 -20.797,-53.8242"
         inkscape:connector-curvature="0"
         id="path32"
         style="fill:#868485;fill-opacity:1;fill-rule:nonzero;stroke:none" /><path
         d="m 438.922,56.3125 -35.957,0 c -0.543,-16.1328 5.847,-22.8477 17.871,-22.8477 5.629,0 11.586,1.4063 15.594,3.4649 L 437.188,30 c -4.981,-2.0625 -11.043,-3.2539 -17.758,-3.2539 -16.246,0 -24.914,8.7773 -24.914,27.6172 0,16.1406 8.668,28.1601 23.609,28.1601 14.84,0 21.012,-10.289 21.012,-22.2031 0,-0.9765 0,-2.3828 -0.215,-4.0078 z m -21.227,20.0391 c -7.582,0 -13,-5.5235 -14.297,-13.9688 l 27.29,0 c 0.218,8.336 -4.766,13.9688 -12.993,13.9688"
         inkscape:connector-curvature="0"
         id="path34"
         style="fill:#868485;fill-opacity:1;fill-rule:nonzero;stroke:none" /><path
         d="m 477.797,74.5117 c -11.914,1.9492 -17.543,-7.1484 -17.543,-25.2344 l 0,-21.5546 -8.121,0 0,53.8242 8.012,0 c 0,-3.5742 -0.434,-8.875 -1.192,-13.5352 l 0.109,-0.1055 c 2.168,7.9024 7.797,15.918 19.063,14.6172 l -0.328,-8.0117"
         inkscape:connector-curvature="0"
         id="path36"
         style="fill:#868485;fill-opacity:1;fill-rule:nonzero;stroke:none" /><path
         d="m 496.426,26.7461 c -4.008,0 -8.125,0.4375 -11.371,1.0859 l 0.215,7.4766 c 3.464,-0.9766 7.796,-1.7344 12.019,-1.7344 7.801,0 13.215,3.461 13.215,9.0977 0,12.9922 -26.207,4.8711 -26.207,24.0429 0,8.9883 7.363,15.8086 21.012,15.8086 3.351,0 7.148,-0.5429 10.503,-1.1914 l -0.214,-7.039 c -3.578,1.1914 -7.477,1.8398 -11.16,1.8398 -7.907,0 -11.801,-3.2461 -11.801,-8.5547 0,-12.8867 26.312,-5.5234 26.312,-23.8242 0,-9.5312 -8.445,-17.0078 -22.523,-17.0078"
         inkscape:connector-curvature="0"
         id="path38"
         style="fill:#868485;fill-opacity:1;fill-rule:nonzero;stroke:none" /><path
         d="m 541.152,96.8203 c 0,3.0313 -2.597,5.5237 -5.629,5.5237 -3.144,0 -5.636,-2.4924 -5.636,-5.5237 0,-3.1445 2.492,-5.5195 5.636,-5.5195 3.032,0 5.629,2.375 5.629,5.5195 z m -1.625,-69.0976 0,53.8242 -8.121,0 0,-53.8242 8.121,0"
         inkscape:connector-curvature="0"
         id="path40"
         style="fill:#868485;fill-opacity:1;fill-rule:nonzero;stroke:none" /><path
         d="m 573.102,26.8594 c -10.832,0 -13.969,4.7617 -13.969,15.9179 l 0,32.3829 -11.699,0 0,6.3867 11.699,0 0,17.8711 8.117,2.277 0,-20.1481 15.812,0 0,-6.3867 -15.812,0 0,-29.0235 c 0,-9.6367 1.734,-12.1328 8.125,-12.1328 2.707,0 5.523,0.3281 7.687,0.9766 l 0,-7.043 c -2.812,-0.6484 -6.609,-1.0781 -9.96,-1.0781"
         inkscape:connector-curvature="0"
         id="path42"
         style="fill:#868485;fill-opacity:1;fill-rule:nonzero;stroke:none" /><path
         d="M 612.52,22.0938 C 606.238,5.52344 601.477,0 589.668,0 c -1.949,0 -4.652,0.214844 -6.82,0.542969 l 0.863,7.468751 c 2.168,-0.75391 4.336,-1.07813 6.719,-1.07813 6.496,0 9.746,3.03125 13.968,14.39841 l 2.493,6.3907 -20.579,53.8242 9.313,0 11.266,-30.8633 c 1.73,-4.875 2.921,-8.7695 4.117,-12.7774 l 0.105,0 c 0.973,3.4649 3.246,10.1797 5.414,16.3516 l 9.641,27.2891 8.883,0 -22.531,-59.4531"
         inkscape:connector-curvature="0"
         id="path44"
         style="fill:#868485;fill-opacity:1;fill-rule:nonzero;stroke:none" /><path
         d="m 683.672,26.7461 c -14.402,0 -23.715,8.7773 -23.715,27.6172 0,15.3828 9.523,28.1601 25.664,28.1601 13.106,0 23.828,-7.2539 23.828,-26.9687 0,-16.0235 -9.859,-28.8086 -25.777,-28.8086 z m 1.191,49.0625 c -8.445,0 -16.461,-6.3906 -16.461,-20.793 0,-13.7578 5.953,-21.3359 16.461,-21.3359 8.449,0 16.137,6.5 16.137,21.3359 0,12.9961 -5.414,20.793 -16.137,20.793"
         inkscape:connector-curvature="0"
         id="path46"
         style="fill:#868485;fill-opacity:1;fill-rule:nonzero;stroke:none" /><path
         d="m 753.086,99.5273 c -2.711,0.8677 -5.629,1.1917 -8.445,1.1917 -8.235,0 -11.914,-4.7659 -11.914,-15.1643 l 0,-4.0078 15.921,0 0,-6.3867 -15.921,0 0,-47.4375 -8.122,0 0,47.4375 -11.699,0 0,6.3867 11.699,0 0,3.7929 c 0,15.0552 7.469,21.9842 20.356,21.9842 3.031,0 5.957,-0.32 8.883,-0.976 l -0.758,-6.8207"
         inkscape:connector-curvature="0"
         id="path48"
         style="fill:#868485;fill-opacity:1;fill-rule:nonzero;stroke:none" /><path
         d="m 850.984,27.7227 -6.496,45.0546 c -1.3,8.8829 -1.843,14.293 -2.277,18.3008 l -0.215,0 c -0.758,-3.0312 -1.84,-7.2539 -3.574,-12.2343 l -17.11,-51.1211 -9.421,0 -16.246,47.8671 c -1.84,5.3086 -3.79,11.0508 -4.661,15.4883 l -0.105,0 c -0.32,-5.8476 -1.082,-11.6953 -1.949,-19.1679 l -5.309,-44.1875 -8.555,0 10.399,73.1013 10.508,0 16.672,-49.3826 c 1.843,-5.3047 3.363,-10.1836 4.117,-14.1836 l 0.218,0 c 1.082,4.9766 2.165,8.2266 4.004,13.4258 l 17.118,50.1404 10.828,0 10.832,-73.1013 -8.778,0"
         inkscape:connector-curvature="0"
         id="path50"
         style="fill:#868485;fill-opacity:1;fill-rule:nonzero;stroke:none" /><path
         d="m 902.105,27.7227 c 0,4.1171 0,8.2343 0.54,11.375 l -0.219,0 c -2.598,-6.8243 -9.528,-12.3516 -18.735,-12.3516 -8.554,0 -14.726,4.5547 -14.726,13.1055 0,11.2656 11.695,19.0664 32.707,19.0664 l 0,4.4375 c 0,8.125 -2.926,12.6679 -12.238,12.6679 -5.2,0 -11.7,-1.625 -16.461,-4.6562 l -0.762,7.1484 c 5.094,2.2774 11.375,4.0078 18.629,4.0078 14.84,0 19.062,-7.3632 19.062,-17.5429 l 0,-21.1172 c 0,-5.3086 0,-11.375 0.215,-16.1406 l -8.012,0 z m -0.433,25.2382 c -20.25,0 -24.586,-6.3945 -24.586,-11.5898 0,-4.8711 3.465,-8.0156 8.773,-8.0156 9.532,0 15.813,9.4218 15.813,18.7343 l 0,0.8711"
         inkscape:connector-curvature="0"
         id="path52"
         style="fill:#868485;fill-opacity:1;fill-rule:nonzero;stroke:none" /><path
         d="m 960.043,27.7227 0,34.875 c 0,8.4492 -2.273,13.3203 -10.07,13.3203 -9.641,0 -16.461,-9.5313 -16.461,-22.3086 l 0,-25.8867 -8.125,0 0,53.8242 8.015,0 c 0,-3.461 -0.328,-8.6602 -0.867,-11.9102 l 0.219,-0.1094 c 3.031,7.7969 9.851,13.1055 19.277,13.1055 12.344,0 16.133,-7.7969 16.133,-17.332 l 0,-37.5781 -8.121,0"
         inkscape:connector-curvature="0"
         id="path54"
         style="fill:#868485;fill-opacity:1;fill-rule:nonzero;stroke:none" /><path
         d="m 1003.91,27.0742 c -12.023,0 -23.289,5.3086 -23.289,25.668 0,17.6523 8.883,29.5664 26.429,29.5664 4.43,0 8.88,-0.6484 12.67,-1.8398 l -0.87,-7.1485 c -3.57,1.4063 -7.8,2.3828 -12.35,2.3828 -11.582,0 -17.324,-8.5586 -17.324,-21.5547 0,-11.0429 3.465,-20.1445 16.464,-20.1445 4.76,0 9.96,1.1914 13.53,3.0313 L 1019.93,30 c -3.57,-1.4102 -9.42,-2.9258 -16.02,-2.9258"
         inkscape:connector-curvature="0"
         id="path56"
         style="fill:#868485;fill-opacity:1;fill-rule:nonzero;stroke:none" /><path
         d="m 1065.85,27.7227 0,34.875 c 0,8.4492 -2.28,13.3203 -10.07,13.3203 -9.64,0 -16.46,-9.5313 -16.46,-22.3086 l 0,-25.8867 -8.12,0 0,79.0583 8.12,0 0,-26.3122 c 0,-3.5743 -0.22,-8.0196 -0.87,-10.7227 l 0.22,-0.1094 c 3.14,7.9063 9.85,12.9961 19.17,12.9961 12.34,0 16.13,-7.7969 16.13,-17.332 l 0,-37.5781 -8.12,0"
         inkscape:connector-curvature="0"
         id="path58"
         style="fill:#868485;fill-opacity:1;fill-rule:nonzero;stroke:none" /><path
         d="m 1130.83,56.3125 -35.96,0 c -0.54,-16.1328 5.85,-22.8477 17.87,-22.8477 5.63,0 11.59,1.4063 15.6,3.4649 L 1129.1,30 c -4.98,-2.0625 -11.05,-3.2539 -17.76,-3.2539 -16.25,0 -24.91,8.7773 -24.91,27.6172 0,16.1406 8.66,28.1601 23.6,28.1601 14.84,0 21.01,-10.289 21.01,-22.2031 0,-0.9765 0,-2.3828 -0.21,-4.0078 z m -21.23,20.0391 c -7.58,0 -12.99,-5.5235 -14.29,-13.9688 l 27.29,0 c 0.22,8.336 -4.77,13.9688 -13,13.9688"
         inkscape:connector-curvature="0"
         id="path60"
         style="fill:#868485;fill-opacity:1;fill-rule:nonzero;stroke:none" /><path
         d="m 1152.16,26.7461 c -4,0 -8.12,0.4375 -11.37,1.0859 l 0.22,7.4766 c 3.47,-0.9766 7.8,-1.7344 12.02,-1.7344 7.8,0 13.22,3.461 13.22,9.0977 0,12.9922 -26.22,4.8711 -26.22,24.0429 0,8.9883 7.37,15.8086 21.01,15.8086 3.36,0 7.15,-0.5429 10.51,-1.1914 l -0.22,-7.039 c -3.57,1.1914 -7.47,1.8398 -11.15,1.8398 -7.91,0 -11.81,-3.2461 -11.81,-8.5547 0,-12.8867 26.32,-5.5234 26.32,-23.8242 0,-9.5312 -8.44,-17.0078 -22.53,-17.0078"
         inkscape:connector-curvature="0"
         id="path62"
         style="fill:#868485;fill-opacity:1;fill-rule:nonzero;stroke:none" /><path
         d="m 1204.26,26.8594 c -10.83,0 -13.98,4.7617 -13.98,15.9179 l 0,32.3829 -11.69,0 0,6.3867 11.69,0 0,17.8711 8.13,2.277 0,-20.1481 15.81,0 0,-6.3867 -15.81,0 0,-29.0235 c 0,-9.6367 1.73,-12.1328 8.12,-12.1328 2.71,0 5.53,0.3281 7.69,0.9766 l 0,-7.043 c -2.82,-0.6484 -6.61,-1.0781 -9.96,-1.0781"
         inkscape:connector-curvature="0"
         id="path64"
         style="fill:#868485;fill-opacity:1;fill-rule:nonzero;stroke:none" /><path
         d="m 1265.44,56.3125 -35.95,0 c -0.54,-16.1328 5.85,-22.8477 17.87,-22.8477 5.63,0 11.59,1.4063 15.59,3.4649 L 1263.71,30 c -4.98,-2.0625 -11.04,-3.2539 -17.76,-3.2539 -16.24,0 -24.91,8.7773 -24.91,27.6172 0,16.1406 8.67,28.1601 23.61,28.1601 14.84,0 21.01,-10.289 21.01,-22.2031 0,-0.9765 0,-2.3828 -0.22,-4.0078 z m -21.22,20.0391 c -7.58,0 -13,-5.5235 -14.3,-13.9688 l 27.29,0 c 0.22,8.336 -4.76,13.9688 -12.99,13.9688"
         inkscape:connector-curvature="0"
         id="path66"
         style="fill:#868485;fill-opacity:1;fill-rule:nonzero;stroke:none" /><path
         d="m 1303.78,74.5117 c -11.91,1.9492 -17.54,-7.1484 -17.54,-25.2344 l 0,-21.5546 -8.12,0 0,53.8242 8.01,0 c 0,-3.5742 -0.43,-8.875 -1.19,-13.5352 l 0.1,-0.1055 c 2.17,7.9024 7.8,15.918 19.07,14.6172 l -0.33,-8.0117"
         inkscape:connector-curvature="0"
         id="path68"
         style="fill:#868485;fill-opacity:1;fill-rule:nonzero;stroke:none" /></g></g></svg>