<svg aria-hidden="true" focusable="false" role="img" viewBox="0 0 100 65" xmlns="http://www.w3.org/2000/svg"><path d="m24.6 0c-0.447 0-0.894 0.171-1.24 0.511l-3.07 3.05c-0.685 0.681-0.685 1.78 0 2.46l58.8 58.5c0.685 0.681 1.79 0.681 2.47 0l3.07-3.05c0.685-0.681 0.685-1.78 0-2.46l-6.68-6.64h22v-7.32h-15.6c-1.44 0-2.6-1.15-2.6-2.59v-14.3c0-1.43 1.16-2.59 2.6-2.59h15.6v-7.32h-56.4l-17.8-17.7c-0.343-0.341-0.79-0.511-1.24-0.511zm-24.6 18.2v7.32h3.7c1.44 0 2.6 1.15 2.6 2.59v14.3c0 1.43-1.16 2.59-2.6 2.59h-3.7v7.32h55.8l-15.4-15.3v5.36c0 1.43-1.16 2.59-2.6 2.59h-21.8c-1.44 0-2.6-1.15-2.6-2.59v-14.3c0-1.43 1.16-2.59 2.6-2.59h12.8l-7.36-7.32zm51 7.32h21c1.44 0 2.6 1.15 2.6 2.59v14.3c0 1.43-1.16 2.59-2.6 2.59h-1.4z" fill="currentColor"/></svg>
