<svg aria-hidden="true" focusable="false" role="img" viewBox="0 0 100 90" xmlns="http://www.w3.org/2000/svg"><g fill="currentColor"><path d="m49.7 0.00188c-2.91 0.0589-5.75 1.49-7.44 4.08-1.06 1.62-1.51 3.48-1.42 5.29-0.0794 0.122-0.986 1.51-1.13 1.72-0.13-0.2-0.997-1.54-1.08-1.66 0.0951-1.81-0.348-3.67-1.4-5.29-1.68-2.59-4.51-4.04-7.42-4.11-1.75-0.0426-3.52 0.41-5.09 1.41-4.18 2.66-5.4 8.27-2.72 12.4 2.56 3.96 7.83 5.24 11.9 3.02l0.992 1.53c-2.84 4.35-4.9 7.5-6.74 10.3-3.09 4.73-1.94 8.93 2.01 11.5l9.47-14.5 9.45 14.6c3.96-2.55 5.13-6.75 2.06-11.5-1.84-2.84-3.9-6.03-6.74-10.4l1.04-1.59c4.1 2.23 9.37 0.974 12-2.97 2.03-3.1 1.85-7.03-0.114-9.93-0.656-0.968-1.51-1.82-2.55-2.49-1.56-1.01-3.33-1.47-5.08-1.43zm0.0903 5.96c0.578-0.0076 1.17 0.154 1.7 0.499 0.357 0.23 0.649 0.514 0.872 0.835 0.668 0.962 0.712 2.24 0.0174 3.31-0.926 1.42-2.74 1.8-4.17 0.882-1.43-0.919-1.82-2.73-0.889-4.14 0.579-0.886 1.51-1.37 2.47-1.38zm-20.1 0.0236c0.963 0.0168 1.89 0.504 2.46 1.39 0.92 1.42 0.525 3.22-0.906 4.14s-3.25 0.521-4.17-0.9c-0.92-1.42-0.525-3.22 0.906-4.14 0.537-0.343 1.13-0.502 1.71-0.492zm10 24.1a1.83 1.81 0 0 0-1.83 1.81v3.62a1.83 1.81 0 0 0 1.83 1.81 1.83 1.81 0 0 0 1.83-1.81v-3.62a1.83 1.81 0 0 0-1.83-1.81zm0 10.9a1.83 1.81 0 0 0-1.83 1.81v3.62a1.83 1.81 0 0 0 1.83 1.81 1.83 1.81 0 0 0 1.83-1.81v-3.62a1.83 1.81 0 0 0-1.83-1.81zm-1.5 8.8a2.43 2.42 0 0 0-2.43 2.42v35.4a2.43 2.42 0 0 0 2.43 2.42h8.94v-4.83h-6.51v-30.6h6.1v-4.83zm6.51 8.86v22.5h55.2v-4.83h-3.22c-0.954 0-1.72-0.761-1.72-1.71v-9.47c0-0.946 0.767-1.71 1.72-1.71h3.22v-4.83zm6.59 4.83h14.4c0.954 0 1.72 0.762 1.72 1.71v9.47c0 0.946-0.767 1.71-1.72 1.71h-14.4c-0.954 0-1.72-0.761-1.72-1.71v-9.47c0-0.946 0.767-1.71 1.72-1.71zm22.7 0h14.4c0.954 0 1.72 0.762 1.72 1.71v9.47c0 0.946-0.767 1.71-1.72 1.71h-14.4c-0.954 0-1.72-0.761-1.72-1.71v-9.47c0-0.946 0.769-1.71 1.72-1.71z"/><path d="m0 58.6v4.83h2.44c0.954 0 1.72 0.762 1.72 1.71v9.47c0 0.946-0.768 1.71-1.72 1.71h-2.44v4.83h31.8v-22.5zm10.8 4.83h14.4c0.954 0 1.72 0.762 1.72 1.71v9.47c0 0.946-0.768 1.71-1.72 1.71h-14.4c-0.954 0-1.72-0.762-1.72-1.71v-9.47c0-0.946 0.768-1.71 1.72-1.71z" opacity=".2"/></g></svg>
